<svg width="27" height="36" viewBox="0 0 27 36" fill="none" xmlns="http://www.w3.org/2000/svg">
<g clip-path="url(#clip0_3_1230)">
<rect width="9" height="9" fill="#FF8577"/>
<rect width="9" height="9" fill="url(#paint0_linear_3_1230)"/>
<rect y="9" width="9" height="9" fill="#FF8577"/>
<rect y="9" width="9" height="9" fill="url(#paint1_linear_3_1230)"/>
<rect x="9" y="18" width="9" height="9" fill="#FF8577"/>
<rect x="9" y="18" width="9" height="9" fill="url(#paint2_linear_3_1230)"/>
<rect y="27" width="9" height="9" fill="#FF8577"/>
<rect y="27" width="9" height="9" fill="url(#paint3_linear_3_1230)"/>
<rect x="9" width="9" height="9" fill="#FF8577"/>
<rect x="9" width="9" height="9" fill="url(#paint4_linear_3_1230)"/>
<rect x="18" y="9" width="9" height="9" fill="#FF8577"/>
<rect x="18" y="9" width="9" height="9" fill="url(#paint5_linear_3_1230)"/>
<rect x="18" y="18" width="9" height="9" fill="#FF8577"/>
<rect x="18" y="18" width="9" height="9" fill="url(#paint6_linear_3_1230)"/>
</g>
<defs>
<linearGradient id="paint0_linear_3_1230" x1="4.5" y1="0" x2="4.5" y2="9" gradientUnits="userSpaceOnUse">
<stop stop-color="#FF81AC"/>
<stop offset="1" stop-color="#FF3F80"/>
</linearGradient>
<linearGradient id="paint1_linear_3_1230" x1="4.5" y1="9" x2="4.5" y2="18" gradientUnits="userSpaceOnUse">
<stop stop-color="#FF81AC"/>
<stop offset="1" stop-color="#FF3F80"/>
</linearGradient>
<linearGradient id="paint2_linear_3_1230" x1="13.5" y1="18" x2="13.5" y2="27" gradientUnits="userSpaceOnUse">
<stop stop-color="#FF81AC"/>
<stop offset="1" stop-color="#FF3F80"/>
</linearGradient>
<linearGradient id="paint3_linear_3_1230" x1="4.5" y1="27" x2="4.5" y2="36" gradientUnits="userSpaceOnUse">
<stop stop-color="#FF81AC"/>
<stop offset="1" stop-color="#FF3F80"/>
</linearGradient>
<linearGradient id="paint4_linear_3_1230" x1="13.5" y1="0" x2="13.5" y2="9" gradientUnits="userSpaceOnUse">
<stop stop-color="#FF81AC"/>
<stop offset="1" stop-color="#FF3F80"/>
</linearGradient>
<linearGradient id="paint5_linear_3_1230" x1="22.5" y1="9" x2="22.5" y2="18" gradientUnits="userSpaceOnUse">
<stop stop-color="#FF81AC"/>
<stop offset="1" stop-color="#FF3F80"/>
</linearGradient>
<linearGradient id="paint6_linear_3_1230" x1="22.5" y1="18" x2="22.5" y2="27" gradientUnits="userSpaceOnUse">
<stop stop-color="#FF81AC"/>
<stop offset="1" stop-color="#FF3F80"/>
</linearGradient>
<clipPath id="clip0_3_1230">
<rect width="27" height="36" fill="white"/>
</clipPath>
</defs>
</svg>
