<svg width="40" height="41" viewBox="0 0 40 41" fill="none" xmlns="http://www.w3.org/2000/svg">
<rect x="0.5" y="0.700195" width="39" height="39" rx="3.5" fill="#FBFBFB"/>
<rect x="0.5" y="0.700195" width="39" height="39" rx="3.5" stroke="#E2E2E2"/>
<path d="M7.63636 4.2002C6.67406 4.20705 5.75311 4.59237 5.07264 5.27284C4.39217 5.95331 4.00685 6.87425 4 7.83656V32.5638C4 34.5522 5.648 36.2002 7.63636 36.2002H32.3636C34.352 36.2002 36 34.5522 36 32.5638V7.83656C36 5.8482 34.352 4.2002 32.3636 4.2002H7.63636ZM7.63636 7.10929H32.3636C32.7782 7.10929 33.0909 7.42201 33.0909 7.83656V32.5638C33.0929 32.6599 33.0754 32.7553 33.0396 32.8445C33.0037 32.9336 32.9502 33.0146 32.8823 33.0825C32.8144 33.1504 32.7334 33.2039 32.6443 33.2398C32.5551 33.2756 32.4597 33.2931 32.3636 33.2911H7.63636C7.54026 33.2933 7.44471 33.276 7.35548 33.2402C7.26626 33.2044 7.18521 33.1509 7.11723 33.083C7.04926 33.015 6.99577 32.9339 6.96 32.8447C6.92422 32.7555 6.9069 32.6599 6.90909 32.5638V7.83656C6.90909 7.42201 7.22182 7.10929 7.63636 7.10929ZM11.9098 9.60965C11.5765 9.60161 11.2449 9.66032 10.9346 9.78232C10.6243 9.90433 10.3415 10.0872 10.1029 10.3201C9.86435 10.553 9.67474 10.8313 9.54529 11.1385C9.41584 11.4458 9.34915 11.7759 9.34915 12.1093C9.34915 12.4427 9.41584 12.7728 9.54529 13.08C9.67474 13.3873 9.86435 13.6656 10.1029 13.8985C10.3415 14.1314 10.6243 14.3142 10.9346 14.4363C11.2449 14.5583 11.5765 14.617 11.9098 14.6089C12.5623 14.5932 13.1828 14.3229 13.6387 13.8559C14.0947 13.3888 14.3499 12.762 14.3499 12.1093C14.3499 11.4566 14.0947 10.8298 13.6387 10.3627C13.1828 9.89566 12.5623 9.62539 11.9098 9.60965ZM25.0444 16.2453C22.96 16.2453 21.5738 17.3871 21.0007 18.4722H20.9091V16.5638H16.8175V30.382H21.0909V23.5631C21.0909 21.7624 21.4487 20.0184 23.6815 20.0184C25.8807 20.0184 25.9098 22.0518 25.9098 23.6547V30.382H30.1818V22.7907C30.1818 19.0758 29.3905 16.2453 25.0444 16.2453ZM9.81818 16.5638V30.382H14.1367V16.5638H9.81818Z" fill="#255AE1"/>
</svg>
